<svg xmlns="http://www.w3.org/2000/svg" viewBox="0 0 5103.9 1268.2"><path d="M1769.4,1106.4h-78V610.2h78V822.9H1858V610.2h79.4v496.2H1858V893.8h-88.6Z"/><path d="M2016.1,732.2c0-77.6,41.8-122,118.4-122s118.4,44.4,118.4,122V984.4c0,77.7-41.9,122-118.4,122s-118.4-44.3-118.4-122Zm78,260.1c0,35.4,15.6,48.9,40.4,48.9s40.4-13.5,40.4-48.9v-268c0-35.4-15.6-48.9-40.4-48.9s-40.4,13.5-40.4,48.9Z"/><path d="M2308.9,610.2h241v70.9h-81.5v425.3h-78V681.1h-81.5Z"/><path d="M2981.6,732.8v64.5c0,79.4-38.3,122.7-116.3,122.7h-36.8v186.4h-78V610.2h114.8C2943.3,610.2,2981.6,653.5,2981.6,732.8Zm-153.1-51.7v168h36.8c24.8,0,38.3-11.3,38.3-46.8V727.9c0-35.5-13.5-46.8-38.3-46.8Z"/><path d="M3212.7,1106.4c-4.3-12.7-7.1-20.5-7.1-60.9v-78c0-46.1-15.6-63.1-51.1-63.1h-26.9v202h-78V610.2h117.7c80.8,0,115.5,37.6,115.5,114.1v39c0,51.1-16.3,84.4-51,100.7,39,16.3,51.8,53.9,51.8,105.6v76.6c0,24.1.7,41.8,8.5,60.2Zm-85.1-425.3V833.5h30.5c29,0,46.8-12.8,46.8-52.5V732.1c0-35.4-12.1-51-39.7-51Z"/><path d="M3356.6,732.2c0-77.6,41.8-122,118.4-122s118.3,44.4,118.3,122V984.4c0,77.7-41.8,122-118.3,122s-118.4-44.3-118.4-122Zm77.9,260.1c0,35.4,15.6,48.9,40.5,48.9s40.4-13.5,40.4-48.9v-268c0-35.4-15.6-48.9-40.4-48.9s-40.5,13.5-40.5,48.9Z"/><path d="M3903.1,732.8v64.5c0,79.4-38.3,122.7-116.2,122.7H3750v186.4h-78V610.2h114.9C3864.8,610.2,3903.1,653.5,3903.1,732.8ZM3750,681.1v168h36.9c24.8,0,38.2-11.3,38.2-46.8V727.9c0-35.5-13.4-46.8-38.2-46.8Z"/><path d="M4049.1,819.3h107.1v70.9H4049.1v145.3h134.7v70.9H3971.2V610.2h212.6v70.9H4049.1Z"/><path d="M4423.4,1106.4c-4.2-12.7-7.1-20.5-7.1-60.9v-78c0-46.1-15.6-63.1-51-63.1h-27v202h-77.9V610.2H4378c80.9,0,115.6,37.6,115.6,114.1v39c0,51.1-16.3,84.4-51,100.7,38.9,16.3,51.7,53.9,51.7,105.6v76.6c0,24.1.7,41.8,8.5,60.2Zm-85.1-425.3V833.5h30.5c29.1,0,46.8-12.8,46.8-52.5V732.1c0-35.4-12-51-39.7-51Z"/><path d="M4551,610.2h241v70.9h-81.5v425.3h-78V681.1H4551Z"/><path d="M4927.4,942l-98.5-331.8h81.5l59.5,226.1,59.6-226.1h74.4L5005.4,942v164.4h-78Z"/><path d="M1843.3,236.1v11.5c0,33.3-10.2,54.5-32.8,65.1,27.3,10.6,37.9,35.1,37.9,69.2v26.3c0,49.9-26.3,76.6-77.1,76.6h-79.9v-323h76.7C1820.7,161.8,1843.3,186.2,1843.3,236.1Zm-101.1-28.2v85.4h19.9c18.9,0,30.4-8.3,30.4-34.1v-18c0-23.1-7.8-33.3-25.8-33.3Zm0,131.6v99.2h29.1c17.1,0,26.3-7.9,26.3-31.8V378.7c0-30-9.7-39.2-32.8-39.2Z"/><path d="M1945.7,161.8V411c0,23.1,10.2,31.4,26.4,31.4s26.3-8.3,26.3-31.4V161.8h48v246c0,51.7-25.9,81.2-75.7,81.2s-75.7-29.5-75.7-81.2v-246Zm78.5-54.9v36H1918.1v-36Z"/><path d="M2205.6,484.8c-2.8-8.3-4.6-13.3-4.6-39.6V394.4c0-30-10.2-41.1-33.3-41.1h-17.5V484.8h-50.8v-323H2176c52.7,0,75.3,24.4,75.3,74.3v25.4c0,33.2-10.6,54.9-33.3,65.5,25.4,10.6,33.7,35.1,33.7,68.8v49.8c0,15.7.5,27.2,5.6,39.2Zm-55.4-276.9v99.3H2170c19,0,30.5-8.3,30.5-34.2V241.2c0-23.1-7.8-33.3-25.8-33.3Z"/><path d="M2354.2,297.9h69.7v46.2h-69.7v94.6h87.7v46.1H2303.4v-323h138.5v46.1h-87.7Z"/><path d="M2656,484.8h-51.2l-8.8-58.6h-62.3l-8.7,58.6h-46.7l51.7-323h74.3ZM2540.2,382.4h48.9L2564.6,219Z"/><path d="M2746.5,161.8V411c0,23.1,10.1,31.4,26.3,31.4s26.3-8.3,26.3-31.4V161.8h48v246c0,51.7-25.8,81.2-75.7,81.2s-75.7-29.5-75.7-81.2v-246Z"/><path d="M2946.3,435.9v48.9h-48.9V435.9Z"/><path d="M3199.2,391.2l34.6-229.4h70.7v323h-48V253.2l-35.1,231.6h-48l-37.9-228.4V484.8h-44.3v-323h70.7Z"/><path d="M3355.7,241.2c0-50.5,27.2-79.4,77.1-79.4s77,28.9,77,79.4V405.4c0,50.6-27.2,79.4-77,79.4s-77.1-28.8-77.1-79.4Zm50.8,169.3c0,23.1,10.1,31.9,26.3,31.9s26.3-8.8,26.3-31.9V236.1c0-23.1-10.2-31.9-26.3-31.9s-26.3,8.8-26.3,31.9Z"/><path d="M3606.3,250.9V484.8h-45.7v-323h63.7l52.1,193.4V161.8h45.3v323h-52.2Z"/><path d="M3761.8,161.8h156.9v46.1h-53V484.8h-50.8V207.9h-53.1Z"/><path d="M4010.1,297.9h69.7v46.2h-69.7v94.6h87.7v46.1H3959.4v-323h138.4v46.1h-87.7Z"/><path d="M4192.9,250.9V484.8h-45.7v-323h63.7L4263,355.2V161.8h45.3v323h-52.2Z"/><path d="M4413.9,297.9h69.7v46.2h-69.7v94.6h87.7v46.1H4363.2v-323h138.4v46.1h-87.7Z"/><path d="M4627.6,304.9h71.1V407.3c0,51.7-25.8,81.2-75.7,81.2s-75.7-29.5-75.7-81.2v-168c0-51.7,25.9-81.2,75.7-81.2s75.7,29.5,75.7,81.2v31.4h-48V236.1c0-23.1-10.1-31.9-26.3-31.9s-26.3,8.8-26.3,31.9V410.5c0,23.1,10.1,31.4,26.3,31.4s26.3-8.3,26.3-31.4V351h-23.1Z"/><path d="M4856.1,484.8c-2.8-8.3-4.6-13.3-4.6-39.6V394.4c0-30-10.2-41.1-33.3-41.1h-17.5V484.8h-50.8v-323h76.6c52.7,0,75.3,24.4,75.3,74.3v25.4c0,33.2-10.6,54.9-33.3,65.5,25.4,10.6,33.7,35.1,33.7,68.8v49.8c0,15.7.5,27.2,5.6,39.2Zm-55.4-276.9v99.3h19.8c19,0,30.5-8.3,30.5-34.2V241.2c0-23.1-7.8-33.3-25.8-33.3Z"/><path d="M4949.8,241.2c0-50.5,27.2-79.4,77-79.4s77.1,28.9,77.1,79.4V405.4c0,50.6-27.2,79.4-77.1,79.4s-77-28.8-77-79.4Zm50.7,167.4c0,22.6,10.2,31.1,26.3,31.1s26.4-8.5,26.4-31.1V238c0-22.5-10.2-31.1-26.4-31.1s-26.3,8.6-26.3,31.1Z"/><path d="M882,122.8h-1.5c-4.3-.1-7-1.5-8.3-4.4-1.4,3.5-4.6,4.7-8.9,4.6h-3.4c-6.4-.2-9.8-3.6-9.6-10.1l.2-10.3,41.4,1-.2,9.8C891.6,120.1,888.4,123,882,122.8Zm-13-13.2-12.7-.3V113c0,2.2.9,3.4,4,3.5h3.6c3.9.1,5.1-1.1,5.1-4Zm16.9.3-11-.2v2.5c-.1,2.5,1,4,4.3,4h2.3c2.9.1,4.3-.9,4.3-3.2Z"/><path d="M891.7,133.2l-32,.7c-3,.1-4,1.4-3.9,3.5s1.1,3.3,4.1,3.3l31.9-.7v6.1l-31.5.7c-6.6.2-10.5-3.1-10.6-9.5s3.5-9.7,10.2-9.9l31.5-.7Z"/><path d="M851.6,166.4c1.1-.4,1.7-.7,5.1-.9l6.5-.4c3.8-.3,5.2-1.6,5-4.6l-.2-2.2-16.8,1-.4-6.5,41.3-2.6.7,9.8c.4,6.7-2.6,9.8-8.9,10.2l-3.3.3c-4.2.2-7.1-1-8.7-3.8-1.1,3.4-4.2,4.6-8.5,4.9l-6.4.4a12.2,12.2,0,0,0-4.9,1Zm35-9.3-12.7.8.2,2.5c.1,2.4,1.3,3.9,4.6,3.6l4.1-.2c2.9-.2,4.2-1.3,4-3.6Z"/><path d="M877,182l.9,8.9-5.8.6-1-8.9-12,1.3,1.1,11.1-5.9.7L852.5,178l41.2-4.2,1.9,17.6-5.9.6-1.2-11.2Z"/><path d="M857.9,222l-.9-6.5,7.3-2.2-1.1-7.9h-7.6l-.9-5.9,42,.8,1.3,9.5Zm11-16.6.8,6.2,20.3-6Z"/><path d="M900.5,225.2l-31.4,5.6c-3,.5-3.8,2-3.4,4.1s1.6,3.1,4.5,2.6l31.5-5.6,1.1,6-31.1,5.6c-6.5,1.1-10.8-1.5-11.9-7.8s2-10.2,8.5-11.4l31.1-5.5Z"/><path d="M870.6,255.8l-6.2,1.2-1.2-6.1,6.1-1.3Z"/><path d="M883.2,284.5l29.6-3,2.2,8.7-40.1,10.3-1.5-5.9,28.8-7.4-29.9,3-1.6-6,27.2-11.9-28.4,7.2-1.4-5.5,40.2-10.3,2.2,8.8Z"/><path d="M906.7,296.9c6.3-1.9,10.9.4,12.8,6.5s-.8,10.5-7.2,12.4L891.7,322c-6.4,1.9-11-.3-12.8-6.5s.8-10.5,7.1-12.4Zm-19.2,12.5c-2.9.9-3.6,2.4-3,4.4s2.1,2.9,4.9,2.1l21.5-6.4c2.8-.9,3.5-2.4,2.9-4.4s-2-2.9-4.9-2.1Z"/><path d="M914.2,326.2l-28.5,9.6-1.9-5.6L923.1,317l2.6,7.8L904.3,339l23.6-7.9,1.8,5.5-39.3,13.2-2.1-6.3Z"/><path d="M930.7,339.5l7.1,18.9-5.6,2-2.4-6.3-33.3,12.3-2.2-6.1L927.6,348l-2.4-6.4Z"/><path d="M925.2,374l3.3,8.3-5.4,2.2-3.4-8.3-11.2,4.5,4.2,10.4-5.5,2.2-6.7-16.4L939,361.4l6.6,16.5-5.5,2.2-4.2-10.4Z"/><path d="M939.2,391.7l-27.5,12.1-2.4-5.3,38-16.8,3.2,7.5-19.9,16.1,22.6-10,2.4,5.3-37.9,16.8-2.7-6.2Z"/><path d="M944.8,418.6l3.8,8.1-5.3,2.6-3.9-8.1-10.9,5.2,4.8,10.2-5.3,2.5-7.7-16,37.4-17.9,7.7,16.1-5.3,2.5-4.9-10.1Z"/><path d="M955.5,442.4l4.2,8.1-11.7,6c-5.9,3-10.8,1.8-13.7-3.9s-1.1-10.4,4.8-13.4l19.2-9.8c5.9-3,10.8-1.8,13.7,3.9s1,10.3-4.9,13.4l-3.5,1.8-2.8-5.5,3.9-2c2.6-1.4,3.1-3,2.1-4.9s-2.5-2.5-5.2-1.1l-19.9,10.2c-2.6,1.3-3,3-2,4.8s2.5,2.5,5.1,1.2l6.8-3.5-1.4-2.6Z"/><path d="M948.4,478.1c.8-.8,1.2-1.3,4.2-2.9l5.7-3.2c3.4-1.8,4-3.6,2.6-6.2l-1.1-2L945,471.9l-3.1-5.7,36.3-19.9,4.7,8.6c3.3,5.9,1.9,10-3.7,13l-2.8,1.6c-3.8,2.1-6.9,2.2-9.5.3.4,3.5-1.8,6-5.6,8l-5.6,3.1c-1.8,1-3.1,1.7-4.1,3.1Zm27.8-23.3L965,461l1.2,2.2c1.2,2.1,2.8,2.9,5.7,1.3l3.6-2c2.6-1.4,3.3-2.9,2.2-4.9Z"/><path d="M981.1,472.1c5.7-3.3,10.8-2.2,14,3.3s1.7,10.4-4,13.8l-18.6,10.9c-5.7,3.3-10.8,2.2-14-3.3s-1.7-10.5,4-13.8Zm-15.7,16.7c-2.5,1.5-2.8,3.2-1.8,5s2.7,2.3,5.2.9l19.4-11.3c2.5-1.5,2.8-3.2,1.8-5s-2.7-2.4-5.3-.9Z"/><path d="M1289.5,1151.5l-58.1-50.5-43.1-37.3-50.5-43.8L691.5,632.7,249,1016.5l-54,46.8-43.3,37.5-54.4,47.3L0,1232.4l31,35.8L691.5,695.4l660.4,572.8,31-35.8Z" fill="#ff381d"/><path d="M1259.7,923.4a567.5,567.5,0,0,1-28.3,177.6l-43.1-37.3a516.9,516.9,0,0,0,19.3-140.3,511.2,511.2,0,0,0-57.1-236.3c-1.1-2.1-2.2-4.2-3.4-6.3s-4-7-5.8-10.3-2.7-5.1-4.1-7.4c-33.3-56.5-49.7-118.6-57.7-170.2-2.9,11.2-5.3,22.8-7.1,34.4-12.5,79.2-7,161.5-6.9,162.3a26,26,0,0,1-45.5,19c-81.1-92.2-143.2-190-184.7-290.9-59.8-145.5-64.4-265.5-59.6-334.6-133.5,105.9-211.2,242.8-254,344-34,80.3-46.1,138.7-46.2,139.2A26,26,0,0,1,430.1,578c-26.7-31.4-43.2-69.4-48.9-112.8A266.7,266.7,0,0,1,379,423C296.9,527.2,234.3,647.9,197.6,772.8c-2.9,9.9-4.3,14.8-6.4,22.7-22.2,87.6-21,177.5,3.8,267.8l-43.3,37.5c-33.7-107-37.4-214-10.9-318.2,2.2-8.8,3.8-14.3,6.8-24.4C187.4,622.9,256,492.4,346,380.8c17.8-22.1,36.8-43.9,56.5-64.8a26.1,26.1,0,0,1,43.3,27.2c-.8,2.3-20.9,55.4-13,115.1a184.5,184.5,0,0,0,8.4,35.9c7.7-24,18.3-53.8,32.5-87.4C524.2,287.4,621,120.6,795.4,4.4a26,26,0,0,1,39.7,28.1c-.4,1.5-37.8,156,48.4,365.3,31,75.3,74.2,149,128.9,219.9.8-29.2,3.1-63.8,8.5-98.5,10.5-66.8,36.8-126.4,56.9-153.5a26,26,0,0,1,46.9,17.2c-.1,1.4-7.9,142.9,57.4,253.7,1.9,3.2,3.5,6.2,5.1,9.1s3.2,5.9,4.7,8.4l.8,1.4,4.1,7.8C1238.5,744.2,1259.7,831.8,1259.7,923.4Z" fill="#ff381d"/><path d="M583.6,1047.6h-26V881.8h26v71.1h29.6V881.8h26.5v165.8H613.2v-71H583.6Z"/><path d="M656.5,922.6c0-25.9,14-40.8,39.6-40.8s39.5,14.9,39.5,40.8v84.3c0,25.9-14,40.7-39.5,40.7s-39.6-14.8-39.6-40.7Zm26.1,85.9c0,11.6,5.2,16,13.5,16s13.5-4.4,13.5-16V921c0-11.6-5.2-16-13.5-16s-13.5,4.4-13.5,16Z"/><path d="M744.8,881.8h80.5v23.7H798.1v142.1h-26V905.5H744.8Z"/><path d="M408.7,1125.5v21.6c0,26.5-12.7,40.9-38.8,40.9H357.6v62.3H331.5V1084.6h38.4C396,1084.6,408.7,1099,408.7,1125.5Zm-51.1-17.3v56.2h12.3c8.3,0,12.8-3.8,12.8-15.7v-24.8c0-11.9-4.5-15.7-12.8-15.7Z"/><path d="M476.5,1250.3c-1.5-4.3-2.4-6.9-2.4-20.4v-26c0-15.4-5.2-21.1-17.1-21.1h-9v67.5H422V1084.6h39.3c27,0,38.6,12.5,38.6,38.1v13c0,17.1-5.4,28.2-17,33.6,13,5.5,17.2,18,17.2,35.3v25.6c0,8,.3,14,2.9,20.1ZM448,1108.2v50.9h10.2c9.7,0,15.7-4.2,15.7-17.5v-16.3c0-11.9-4.1-17.1-13.3-17.1Z"/><path d="M515.1,1125.3c0-25.9,13.9-40.7,39.5-40.7s39.5,14.8,39.5,40.7v84.3c0,25.9-13.9,40.7-39.5,40.7s-39.5-14.8-39.5-40.7Zm26,85.9c0,11.6,5.2,16,13.5,16s13.5-4.4,13.5-16v-87.5c0-11.6-5.2-16-13.5-16s-13.5,4.4-13.5,16Z"/><path d="M688.1,1125.5v21.6c0,26.5-12.7,40.9-38.8,40.9H637v62.3H610.9V1084.6h38.4C675.4,1084.6,688.1,1099,688.1,1125.5ZM637,1108.2v56.2h12.3c8.3,0,12.8-3.8,12.8-15.7v-24.8c0-11.9-4.5-15.7-12.8-15.7Z"/><path d="M727.4,1154.4h35.8v23.7H727.4v48.5h45v23.7h-71V1084.6h71v23.6h-45Z"/><path d="M843,1250.3c-1.4-4.3-2.4-6.9-2.4-20.4v-26c0-15.4-5.2-21.1-17-21.1h-9v67.5H788.5V1084.6h39.3c27,0,38.6,12.5,38.6,38.1v13c0,17.1-5.4,28.2-17,33.6,13,5.5,17.3,18,17.3,35.3v25.6c0,8,.2,14,2.8,20.1Zm-28.4-142.1v50.9h10.2c9.7,0,15.6-4.2,15.6-17.5v-16.3c0-11.9-4-17.1-13.3-17.1Z"/><path d="M876.1,1084.6h80.5v23.6H929.4v142.1h-26V1108.2H876.1Z"/><path d="M992.4,1195.4l-32.9-110.8h27.2l19.9,75.5,19.9-75.5h24.9l-33,110.8v54.9h-26Z"/></svg>